<svg width="70" height="70" xmlns="http://www.w3.org/2000/svg" xmlns:xlink="http://www.w3.org/1999/xlink"><defs><path d="M4 0h61c4 0 5 1 5 5v60c0 4-1 5-5 5H4c-3 0-4-1-4-5V5c0-4 1-5 4-5z" id="a"/><linearGradient x1="100%" y1="0%" x2="0%" y2="98.616%" id="c"><stop stop-color="#797C79" offset="0%"/><stop stop-color="#545554" offset="100%"/></linearGradient></defs><g fill="none" fill-rule="evenodd"><mask id="b" fill="#fff"><use xlink:href="#a"/></mask><g mask="url(#b)"><path fill="url(#c)" d="M0 0H70V70H0z"/><path d="M4 1h61c2.667 0 4.333.667 5 2V0H0v3c.667-1.333 2-2 4-2z" fill="#FFF" fill-opacity=".383"/><path d="M32.25 69H4c-2 0-4-1-4-4V39.181L19 20h32v6.208l1.992 12.632L51 41.123V50L32.25 69z" fill="#393939" opacity=".324"/><path d="M4 69h61c2.667 0 4.333-1 5-3v4H0v-4c.667 2 2 3 4 3z" fill="#000" fill-opacity=".383"/><path d="M51 22H19v3.75h32V22zm2 18.75V37l-2-9.375H19L17 37v3.75h2V52h20V40.75h8V52h4V40.75h2zm-18 7.5H23v-7.5h12v7.5z" fill-opacity=".3" fill="#000"/><path d="M51 20H19v3.75h32V20zm2 18.75V35l-2-9.375H19L17 35v3.75h2V50h20V38.75h8V50h4V38.75h2zm-18 7.5H23v-7.5h12v7.5z" fill="#FFF"/></g></g></svg>