<svg xmlns="http://www.w3.org/2000/svg" xmlns:xlink="http://www.w3.org/1999/xlink" width="70" height="70" viewBox="0 0 70 70">
    <defs>
        <path id="icon-a" d="M4,5.35309892e-14 C36.4160122,9.87060235e-15 58.0836068,-3.97961823e-14 65,5.07020818e-14 C69,6.733808e-14 70,1 70,5 C70,43.0488877 70,62.4235458 70,65 C70,69 69,70 65,70 C61,70 9,70 4,70 C1,70 7.10542736e-15,69 7.10542736e-15,65 C7.25721566e-15,62.4676575 3.83358709e-14,41.8005206 3.60818146e-14,5 C-1.13686838e-13,1 1,5.75716207e-14 4,5.35309892e-14 Z"/>
        <linearGradient id="icon-c" x1="100%" x2="0%" y1="0%" y2="100%">
            <stop offset="0%" stop-color="#CD7690"/>
            <stop offset="100%" stop-color="#CA5377"/>
        </linearGradient>
        <path id="icon-d" d="M53,41.4976403 C52.0664646,41.0750912 51.0579856,40.7889776 50,40.6647366 L50,27 L40,27 C38,27 37,26 37,24 L37,17 L21,17 L21,55 L39.4976403,55 C40.0060718,56.1232752 40.7120357,57.1380464 41.5712183,58 L20,58 C18.6666667,58 18,57.3333333 18,56 L18,16 C18,14.6666667 18.6666667,14 20,14 L40,14 C42,15 50,21 53,23 L53,41.4976403 Z M40,17 L40,24 L50,24 L40,17 Z M42.7027027,35.607835 L42.7027027,37.1685322 C42.7027027,37.5364108 42.2694257,37.8374023 41.7398649,37.8374023 L28.2601351,37.8374023 C27.7305743,37.8374023 27.2972973,37.5364108 27.2972973,37.1685322 L27.2972973,35.607835 C27.2972973,35.2399564 27.7305743,34.9389648 28.2601351,34.9389648 L41.7398649,34.9389648 C42.2694257,34.9389648 42.7027027,35.2399564 42.7027027,35.607835 Z M41.7398649,40.8828125 C42.2694257,40.8828125 42.7027027,41.1838041 42.7027027,41.5516827 C42.7027027,41.9299039 42.7027027,42.079343 42.7027027,42 C42.7027027,42.6392469 41.5295608,43.78125 41,43.78125 L28.2601351,43.78125 C27.7305743,43.78125 27.2972973,43.4802584 27.2972973,43.1123798 L27.2972973,41.5516827 C27.2972973,41.1838041 27.7305743,40.8828125 28.2601351,40.8828125 L41.7398649,40.8828125 Z M39,47 C39.2588964,47 39.1237613,47.96875 38.5945946,49.90625 L28.0033784,49.90625 C27.6150338,49.90625 27.2972973,49.6052584 27.2972973,49.2373798 L27.2972973,47.6766827 C27.2972973,47.3088041 27.6150338,47.0078125 28.0033784,47.0078125 L39,47 Z M55.1454427,52.1425781 L56.5326823,52.9433268 C56.6911133,53.0347656 56.7646484,53.2238607 56.7103841,53.3985677 C56.3500326,54.5587891 55.7347982,55.6069661 54.9301432,56.4775391 C54.8061169,56.6118001 54.6056436,56.6422658 54.4473307,56.5509115 L53.0611328,55.750293 C52.4778993,56.2500184 51.8073721,56.6377078 51.0833008,56.8938477 L51.0833008,58.4948242 C51.0833035,58.6777188 50.9565051,58.8361728 50.7780599,58.8762695 C49.6401693,59.1318034 48.4180664,59.1450195 47.2227539,58.8764974 C47.044043,58.8363607 46.9166667,58.6780599 46.9166667,58.4948893 L46.9166667,56.8938477 C46.1925884,56.6377228 45.5220586,56.2500319 44.9388346,55.750293 L43.5526367,56.5509115 C43.3943239,56.6422658 43.1938506,56.6118001 43.0698242,56.4775391 C42.2652018,55.6069661 41.6499349,54.5587891 41.2895833,53.3985677 C41.235319,53.2238932 41.3088542,53.0347982 41.4672852,52.9433268 L42.8545573,52.1425781 C42.7152187,51.3872425 42.7152187,50.6127901 42.8545573,49.8574544 L41.4673177,49.0567057 C41.3088867,48.9652669 41.2353516,48.7761719 41.2896159,48.6014648 C41.6499674,47.4412435 42.2652018,46.3930664 43.0698568,45.5224935 C43.1938831,45.3882324 43.3943564,45.3577667 43.5526693,45.4491211 L44.9388672,46.2497396 C45.5221007,45.7500141 46.1926279,45.3623247 46.9166992,45.1061849 L46.9166992,43.5051758 C46.9166965,43.3222812 47.0434949,43.1638272 47.2219401,43.1237305 C48.3598307,42.8681966 49.5819336,42.8549805 50.7772461,43.1235026 C50.955957,43.1636393 51.0833333,43.3219401 51.0833333,43.5051107 L51.0833333,45.1061523 C51.8074116,45.3622772 52.4779414,45.7499681 53.0611654,46.249707 L54.4473633,45.4490885 C54.6056761,45.3577342 54.8061494,45.3881999 54.9301758,45.5224609 C55.7347982,46.3930339 56.3500651,47.4412109 56.7104167,48.6014323 C56.764681,48.7761068 56.6911458,48.9652018 56.5327148,49.0566732 L55.1454427,49.8574219 C55.2847816,50.6127684 55.2847816,51.3872316 55.1454427,52.1425781 Z M51.6041667,51 C51.6041667,49.5640625 50.4359375,48.3958333 49,48.3958333 C47.5640625,48.3958333 46.3958333,49.5640625 46.3958333,51 C46.3958333,52.4359375 47.5640625,53.6041667 49,53.6041667 C50.4359375,53.6041667 51.6041667,52.4359375 51.6041667,51 Z"/>
        <path id="icon-e" d="M53,39.4976403 C52.0664646,39.0750912 51.0579856,38.7889776 50,38.6647366 L50,25 L40,25 C38,25 37,24 37,22 L37,15 L21,15 L21,53 L39.4976403,53 C40.0060718,54.1232752 40.7120357,55.1380464 41.5712183,56 L20,56 C18.6666667,56 18,55.3333333 18,54 L18,14 C18,12.6666667 18.6666667,12 20,12 L40,12 C42,13 50,19 53,21 L53,39.4976403 Z M40,15 L40,22 L50,22 L40,15 Z M42.7027027,33.607835 L42.7027027,35.1685322 C42.7027027,35.5364108 42.2694257,35.8374023 41.7398649,35.8374023 L28.2601351,35.8374023 C27.7305743,35.8374023 27.2972973,35.5364108 27.2972973,35.1685322 L27.2972973,33.607835 C27.2972973,33.2399564 27.7305743,32.9389648 28.2601351,32.9389648 L41.7398649,32.9389648 C42.2694257,32.9389648 42.7027027,33.2399564 42.7027027,33.607835 Z M41.7398649,38.8828125 C42.2694257,38.8828125 42.7027027,39.1838041 42.7027027,39.5516827 C42.7027027,39.9299039 42.7027027,40.079343 42.7027027,40 C42.7027027,40.6392469 41.5295608,41.78125 41,41.78125 L28.2601351,41.78125 C27.7305743,41.78125 27.2972973,41.4802584 27.2972973,41.1123798 L27.2972973,39.5516827 C27.2972973,39.1838041 27.7305743,38.8828125 28.2601351,38.8828125 L41.7398649,38.8828125 Z M39,45 C39.2588964,45 39.1237613,45.96875 38.5945946,47.90625 L28.0033784,47.90625 C27.6150338,47.90625 27.2972973,47.6052584 27.2972973,47.2373798 L27.2972973,45.6766827 C27.2972973,45.3088041 27.6150338,45.0078125 28.0033784,45.0078125 L39,45 Z M55.1454427,50.1425781 L56.5326823,50.9433268 C56.6911133,51.0347656 56.7646484,51.2238607 56.7103841,51.3985677 C56.3500326,52.5587891 55.7347982,53.6069661 54.9301432,54.4775391 C54.8061169,54.6118001 54.6056436,54.6422658 54.4473307,54.5509115 L53.0611328,53.750293 C52.4778993,54.2500184 51.8073721,54.6377078 51.0833008,54.8938477 L51.0833008,56.4948242 C51.0833035,56.6777188 50.9565051,56.8361728 50.7780599,56.8762695 C49.6401693,57.1318034 48.4180664,57.1450195 47.2227539,56.8764974 C47.044043,56.8363607 46.9166667,56.6780599 46.9166667,56.4948893 L46.9166667,54.8938477 C46.1925884,54.6377228 45.5220586,54.2500319 44.9388346,53.750293 L43.5526367,54.5509115 C43.3943239,54.6422658 43.1938506,54.6118001 43.0698242,54.4775391 C42.2652018,53.6069661 41.6499349,52.5587891 41.2895833,51.3985677 C41.235319,51.2238932 41.3088542,51.0347982 41.4672852,50.9433268 L42.8545573,50.1425781 C42.7152187,49.3872425 42.7152187,48.6127901 42.8545573,47.8574544 L41.4673177,47.0567057 C41.3088867,46.9652669 41.2353516,46.7761719 41.2896159,46.6014648 C41.6499674,45.4412435 42.2652018,44.3930664 43.0698568,43.5224935 C43.1938831,43.3882324 43.3943564,43.3577667 43.5526693,43.4491211 L44.9388672,44.2497396 C45.5221007,43.7500141 46.1926279,43.3623247 46.9166992,43.1061849 L46.9166992,41.5051758 C46.9166965,41.3222812 47.0434949,41.1638272 47.2219401,41.1237305 C48.3598307,40.8681966 49.5819336,40.8549805 50.7772461,41.1235026 C50.955957,41.1636393 51.0833333,41.3219401 51.0833333,41.5051107 L51.0833333,43.1061523 C51.8074116,43.3622772 52.4779414,43.7499681 53.0611654,44.249707 L54.4473633,43.4490885 C54.6056761,43.3577342 54.8061494,43.3881999 54.9301758,43.5224609 C55.7347982,44.3930339 56.3500651,45.4412109 56.7104167,46.6014323 C56.764681,46.7761068 56.6911458,46.9652018 56.5327148,47.0566732 L55.1454427,47.8574219 C55.2847816,48.6127684 55.2847816,49.3872316 55.1454427,50.1425781 Z M51.6041667,49 C51.6041667,47.5640625 50.4359375,46.3958333 49,46.3958333 C47.5640625,46.3958333 46.3958333,47.5640625 46.3958333,49 C46.3958333,50.4359375 47.5640625,51.6041667 49,51.6041667 C50.4359375,51.6041667 51.6041667,50.4359375 51.6041667,49 Z"/>
    </defs>
    <g fill="none" fill-rule="evenodd">
        <mask id="icon-b" fill="#fff">
            <use xlink:href="#icon-a"/>
        </mask>
        <g mask="url(#icon-b)">
            <rect width="70" height="70" fill="url(#icon-c)"/>
            <path fill="#FFF" fill-opacity=".383" d="M4,1.8 L65,1.8 C67.6666667,1.8 69.3333333,1.13333333 70,-0.2 C70,2.46666667 70,3.46666667 70,2.8 L1.10547097e-14,2.8 C-1.65952376e-14,3.46666667 -1.96880219e-14,2.46666667 1.77635684e-15,-0.2 C0.666666667,1.13333333 2,1.8 4,1.8 Z" transform="matrix(1 0 0 -1 0 2.8)"/>
            <path fill="#393939" d="M41.3443396,56 L4,56 C2,56 7.37654597e-17,55 7.37654597e-17,52 L0,15.8547831 L18.2131799,0 L39,0 C43.3978903,3.97792606 48.0645569,7.03247151 53,9.16363636 C53.0465542,16.0463164 53.0465542,23.512983 53,31.5636364 L56.6971898,33.8355957 L54.2032031,37.7961408 L54.892836,41.368389 L41.3443396,56 Z" opacity=".324" transform="translate(0 13)"/>
            <path fill="#000" fill-opacity=".383" d="M4,4 L65,4 C67.6666667,4 69.3333333,3 70,1 C70,3.66666667 70,5 70,5 L1.77635684e-15,5 C1.77635684e-15,5 1.77635684e-15,3.66666667 1.77635684e-15,1 C0.666666667,3 2,4 4,4 Z" transform="translate(0 65)"/>
            <use fill="#000" fill-rule="nonzero" opacity=".3" xlink:href="#icon-d"/>
            <use fill="#FFF" fill-rule="nonzero" xlink:href="#icon-e"/>
        </g>
    </g>
</svg>
