<svg width="70" height="70" xmlns="http://www.w3.org/2000/svg" xmlns:xlink="http://www.w3.org/1999/xlink"><defs><path d="M4 0h61c4 0 5 1 5 5v60c0 4-1 5-5 5H4c-3 0-4-1-4-5V5c0-4 1-5 4-5z" id="a"/><linearGradient x1="100%" y1="0%" x2="0%" y2="100%" id="c"><stop stop-color="#269396" offset="0%"/><stop stop-color="#218689" offset="100%"/></linearGradient><path d="M35.5 22.75a7.52 7.52 0 1 1 0 15.039 7.52 7.52 0 0 1 0-15.039zm8.126 15.567l-2.864-.716c-3.52 2.532-7.789 1.967-10.524 0l-2.864.716a5.156 5.156 0 0 0-3.905 5.002v4.353a2.578 2.578 0 0 0 2.578 2.578h18.906a2.578 2.578 0 0 0 2.578-2.578v-4.353a5.156 5.156 0 0 0-3.905-5.002zm6.77 1.334a5.013 5.013 0 1 0 0-10.026 5.013 5.013 0 0 0 0 10.026zm-29.792 0a5.013 5.013 0 1 0 0-10.026 5.013 5.013 0 0 0 0 10.026zm1.719 8.02V43.32c0-1.185.329-2.306.91-3.266-2.148 1.054-4.536.624-6.137-.527l-1.909.477a3.437 3.437 0 0 0-2.604 3.335v2.902c0 .949.77 1.718 1.72 1.718h8.032a3.754 3.754 0 0 1-.012-.286zm33.49-7.668l-1.909-.478c-2 1.439-4.36 1.378-6.144.517.585.962.917 2.087.917 3.277v4.353c0 .096-.005.192-.012.286h8.033c.95 0 1.719-.77 1.719-1.718v-2.902a3.438 3.438 0 0 0-2.604-3.335z" id="d"/><path d="M35.5 20.75a7.52 7.52 0 1 1 0 15.039 7.52 7.52 0 0 1 0-15.039zm8.126 15.567l-2.864-.716c-3.52 2.532-7.789 1.967-10.524 0l-2.864.716a5.156 5.156 0 0 0-3.905 5.002v4.353a2.578 2.578 0 0 0 2.578 2.578h18.906a2.578 2.578 0 0 0 2.578-2.578v-4.353a5.156 5.156 0 0 0-3.905-5.002zm6.77 1.334a5.013 5.013 0 1 0 0-10.026 5.013 5.013 0 0 0 0 10.026zm-29.792 0a5.013 5.013 0 1 0 0-10.026 5.013 5.013 0 0 0 0 10.026zm1.719 8.02V41.32c0-1.185.329-2.306.91-3.266-2.148 1.054-4.536.624-6.137-.527l-1.909.477a3.437 3.437 0 0 0-2.604 3.335v2.902c0 .949.77 1.718 1.72 1.718h8.032a3.754 3.754 0 0 1-.012-.286zm33.49-7.668l-1.909-.478c-2 1.439-4.36 1.378-6.144.517.585.962.917 2.087.917 3.277v4.353c0 .096-.005.192-.012.286h8.033c.95 0 1.719-.77 1.719-1.718v-2.902a3.438 3.438 0 0 0-2.604-3.335z" id="e"/></defs><g fill="none" fill-rule="evenodd"><mask id="b" fill="#fff"><use xlink:href="#a"/></mask><g mask="url(#b)"><path fill="url(#c)" d="M0 0H70V70H0z"/><path d="M4 1h61c2.667 0 4.333.667 5 2V0H0v3c.667-1.333 2-2 4-2z" fill="#FFF" fill-opacity=".383"/><path d="M44 70H4c-2 0-4-.15-4-4.174V45.63l17.21-16.582 2.373 3.474 10.694-9.41 10.638 10.16 5.73-3.86 8.66 4.364-2.924 5.353 5.86 5.776L44 70z" fill="#393939" opacity=".324"/><path d="M4 69h61c2.667 0 4.333-1 5-3v4H0v-4c.667 2 2 3 4 3z" fill="#000" fill-opacity=".383"/><use fill="#000" fill-rule="nonzero" opacity=".3" xlink:href="#d"/><use fill="#FFF" fill-rule="nonzero" xlink:href="#e"/></g></g></svg>