<svg width="70" height="70" xmlns="http://www.w3.org/2000/svg" xmlns:xlink="http://www.w3.org/1999/xlink"><defs><path d="M4 0h61c4 0 5 1 5 5v60c0 4-1 5-5 5H4c-3 0-4-1-4-5V5c0-4 1-5 4-5z" id="a"/><linearGradient x1="100%" y1="0%" x2="0%" y2="100%" id="c"><stop stop-color="#B06161" offset="0%"/><stop stop-color="#984E4E" offset="45.785%"/><stop stop-color="#7C3838" offset="100%"/></linearGradient></defs><g fill="none" fill-rule="evenodd"><mask id="b" fill="#fff"><use xlink:href="#a"/></mask><g mask="url(#b)"><path fill="url(#c)" d="M0 0H70V70H0z"/><path d="M4 1h61c2.667 0 4.333.667 5 2V0H0v3c.667-1.333 2-2 4-2z" fill="#FFF" fill-opacity=".383"/><path d="M4 70c-2 0-4-.148-4-4.14V46.193L29.922 11H35v11.386l14 2.07 5 21.737L37.72 70H4z" fill="#393939" opacity=".324"/><path d="M4 69h61c2.667 0 4.333-1 5-3v4H0v-4c.667 2 2 3 4 3z" fill="#000" fill-opacity=".383"/><path d="M37.917 30.104v11.959c0 .249-.08.453-.24.613a.831.831 0 0 1-.614.24H28.52a.831.831 0 0 1-.614-.24.831.831 0 0 1-.24-.614v-1.708c0-.249.08-.454.24-.614.16-.16.365-.24.614-.24H34.5v-9.396c0-.249.08-.454.24-.614.16-.16.365-.24.614-.24h1.709c.249 0 .453.08.613.24.16.16.24.365.24.614zM49.02 39.5c0-2.634-.65-5.063-1.949-7.287a14.475 14.475 0 0 0-5.285-5.285c-2.224-1.3-4.653-1.949-7.287-1.949-2.634 0-5.063.65-7.287 1.949a14.475 14.475 0 0 0-5.285 5.285c-1.3 2.224-1.949 4.653-1.949 7.287 0 2.634.65 5.063 1.949 7.287a14.475 14.475 0 0 0 5.285 5.285c2.224 1.3 4.653 1.949 7.287 1.949 2.634 0 5.063-.65 7.287-1.949a14.475 14.475 0 0 0 5.285-5.285c1.3-2.224 1.949-4.653 1.949-7.287zm1.016-13.405l2.653-1.999a1 1 0 0 1 1.4.197l1.806 2.396a1 1 0 0 1-.197 1.4l-2.877 2.168C54.274 33.11 55 36.19 55 39.5c0 3.72-.916 7.15-2.75 10.29a20.408 20.408 0 0 1-7.46 7.46C41.65 59.085 38.22 60 34.5 60c-3.72 0-7.15-.916-10.29-2.75a20.408 20.408 0 0 1-7.46-7.46C14.915 46.65 14 43.22 14 39.5c0-3.72.916-7.15 2.75-10.29a20.408 20.408 0 0 1 7.46-7.46A19.86 19.86 0 0 1 32 19.142V17h-2a1 1 0 0 1-1-1v-2a1 1 0 0 1 1-1h10a1 1 0 0 1 1 1v2a1 1 0 0 1-1 1h-2v2.285c2.396.4 4.66 1.221 6.79 2.464a20.469 20.469 0 0 1 5.247 4.346z" fill="#000" opacity=".3"/><path d="M37.917 28.104v11.959c0 .249-.08.453-.24.613a.831.831 0 0 1-.614.24H28.52a.831.831 0 0 1-.614-.24.831.831 0 0 1-.24-.614v-1.708c0-.249.08-.454.24-.614.16-.16.365-.24.614-.24H34.5v-9.396c0-.249.08-.454.24-.614.16-.16.365-.24.614-.24h1.709c.249 0 .453.08.613.24.16.16.24.365.24.614zM49.02 37.5c0-2.634-.65-5.063-1.949-7.287a14.475 14.475 0 0 0-5.285-5.285c-2.224-1.3-4.653-1.949-7.287-1.949-2.634 0-5.063.65-7.287 1.949a14.475 14.475 0 0 0-5.285 5.285c-1.3 2.224-1.949 4.653-1.949 7.287 0 2.634.65 5.063 1.949 7.287a14.475 14.475 0 0 0 5.285 5.285c2.224 1.3 4.653 1.949 7.287 1.949 2.634 0 5.063-.65 7.287-1.949a14.475 14.475 0 0 0 5.285-5.285c1.3-2.224 1.949-4.653 1.949-7.287zm1.016-13.405l2.653-1.999a1 1 0 0 1 1.4.197l1.806 2.396a1 1 0 0 1-.197 1.4l-2.877 2.168C54.274 31.11 55 34.19 55 37.5c0 3.72-.916 7.15-2.75 10.29a20.408 20.408 0 0 1-7.46 7.46C41.65 57.085 38.22 58 34.5 58c-3.72 0-7.15-.916-10.29-2.75a20.408 20.408 0 0 1-7.46-7.46C14.915 44.65 14 41.22 14 37.5c0-3.72.916-7.15 2.75-10.29a20.408 20.408 0 0 1 7.46-7.46A19.86 19.86 0 0 1 32 17.142V15h-2a1 1 0 0 1-1-1v-2a1 1 0 0 1 1-1h10a1 1 0 0 1 1 1v2a1 1 0 0 1-1 1h-2v2.285c2.396.4 4.66 1.221 6.79 2.464a20.469 20.469 0 0 1 5.247 4.346z" fill="#FFF"/></g></g></svg>